<svg width="133" height="32" viewBox="0 0 133 32" fill="none" xmlns="http://www.w3.org/2000/svg">
<path d="M0 5.07937C0 2.27411 2.27411 0 5.07937 0H26.9206C29.7258 0 32 2.27411 32 5.07937V26.9206C32 29.7258 29.7258 32 26.9206 32H5.07937C2.27411 32 0 29.7258 0 26.9206V5.07937Z" fill="#593EAA"/>
<path d="M9.29871 5.27101C9.45518 5.01546 9.84636 5.01546 10.0028 5.27101L12.6433 9.58369C12.7998 9.83925 12.6042 10.1587 12.2913 10.1587H7.01029C6.69734 10.1587 6.50175 9.83925 6.65822 9.58369L9.29871 5.27101Z" fill="white"/>
<path d="M21.9971 5.27101C22.1535 5.01546 22.5448 5.01546 22.7012 5.27101L25.3417 9.58369C25.4982 9.83925 25.3026 10.1587 24.9896 10.1587H19.7087C19.3957 10.1587 19.2001 9.83925 19.3566 9.58369L21.9971 5.27101Z" fill="white"/>
<path d="M14.7301 11.6826C15.0106 11.6826 15.2381 11.91 15.2381 12.1905V19.8095H14.0298C13.5921 19.8095 13.3185 20.2328 13.5373 20.5714L15.2381 23.2024V26.9207H12.6984C8.49051 26.9207 5.07935 23.5095 5.07935 19.3016V12.1905C5.07935 11.91 5.30676 11.6826 5.58728 11.6826H14.7301ZM26.4127 11.6826C26.6932 11.6826 26.9206 11.91 26.9206 12.1905V19.3016C26.9206 23.5095 23.5094 26.9207 19.3016 26.9207H16.7619V23.2022L18.4626 20.5714C18.6814 20.2328 18.4077 19.8095 17.97 19.8095H16.7619V12.1905C16.7619 11.91 16.9893 11.6826 17.2698 11.6826H26.4127Z" fill="white"/>
<path d="M41.2642 23V8.45455H44.3395V14.8679H44.5312L49.7656 8.45455H53.4517L48.054 14.9673L53.5156 23H49.8366L45.8523 17.0199L44.3395 18.8665V23H41.2642ZM55.68 23V12.0909H58.7056V23H55.68ZM57.1999 10.6847C56.7501 10.6847 56.3642 10.5355 56.0423 10.2372C55.725 9.93419 55.5664 9.57197 55.5664 9.15057C55.5664 8.7339 55.725 8.37642 56.0423 8.07812C56.3642 7.77509 56.7501 7.62358 57.1999 7.62358C57.6497 7.62358 58.0333 7.77509 58.3505 8.07812C58.6725 8.37642 58.8335 8.7339 58.8335 9.15057C58.8335 9.57197 58.6725 9.93419 58.3505 10.2372C58.0333 10.5355 57.6497 10.6847 57.1999 10.6847ZM66.9318 12.0909V14.3636H60.3622V12.0909H66.9318ZM61.8537 9.47727H64.8793V19.6477C64.8793 19.9271 64.9219 20.1449 65.0071 20.3011C65.0923 20.4527 65.2107 20.5592 65.3622 20.6207C65.5185 20.6823 65.6984 20.7131 65.902 20.7131C66.044 20.7131 66.1861 20.7012 66.3281 20.6776C66.4702 20.6491 66.5791 20.6278 66.6548 20.6136L67.1307 22.8651C66.9792 22.9124 66.7661 22.9669 66.4915 23.0284C66.2169 23.0947 65.883 23.1349 65.4901 23.1491C64.7609 23.1776 64.1217 23.0805 63.5724 22.858C63.0279 22.6354 62.6042 22.2898 62.3011 21.821C61.9981 21.3523 61.849 20.7604 61.8537 20.0455V9.47727ZM74.7053 12.0909V14.3636H68.1357V12.0909H74.7053ZM69.6271 9.47727H72.6527V19.6477C72.6527 19.9271 72.6953 20.1449 72.7805 20.3011C72.8658 20.4527 72.9841 20.5592 73.1357 20.6207C73.2919 20.6823 73.4718 20.7131 73.6754 20.7131C73.8175 20.7131 73.9595 20.7012 74.1016 20.6776C74.2436 20.6491 74.3525 20.6278 74.4283 20.6136L74.9041 22.8651C74.7526 22.9124 74.5395 22.9669 74.2649 23.0284C73.9903 23.0947 73.6565 23.1349 73.2635 23.1491C72.5343 23.1776 71.8951 23.0805 71.3459 22.858C70.8014 22.6354 70.3776 22.2898 70.0746 21.821C69.7715 21.3523 69.6224 20.7604 69.6271 20.0455V9.47727ZM81.5305 23.2131C80.4084 23.2131 79.4425 22.9858 78.6328 22.5312C77.8279 22.072 77.2076 21.4233 76.772 20.5852C76.3364 19.7424 76.1186 18.7457 76.1186 17.5952C76.1186 16.473 76.3364 15.4882 76.772 14.6406C77.2076 13.7931 77.8208 13.1326 78.6115 12.6591C79.407 12.1856 80.3397 11.9489 81.4098 11.9489C82.1295 11.9489 82.7995 12.0649 83.4197 12.2969C84.0447 12.5241 84.5893 12.8674 85.0533 13.3267C85.522 13.786 85.8866 14.3636 86.147 15.0597C86.4074 15.7509 86.5376 16.5606 86.5376 17.4886V18.3196H77.326V16.4446H83.6896C83.6896 16.009 83.5949 15.6231 83.4055 15.2869C83.2161 14.9508 82.9534 14.688 82.6172 14.4986C82.2857 14.3045 81.8999 14.2074 81.4595 14.2074C81.0002 14.2074 80.593 14.3139 80.2379 14.527C79.8875 14.7353 79.6129 15.017 79.4141 15.3722C79.2152 15.7225 79.1134 16.1132 79.1087 16.544V18.3267C79.1087 18.8665 79.2081 19.3329 79.407 19.7259C79.6106 20.1188 79.897 20.4219 80.2663 20.6349C80.6357 20.848 81.0736 20.9545 81.5803 20.9545C81.9164 20.9545 82.2242 20.9072 82.5036 20.8125C82.7829 20.7178 83.022 20.5758 83.2209 20.3864C83.4197 20.197 83.5713 19.965 83.6754 19.6903L86.4737 19.875C86.3317 20.5473 86.0405 21.1345 85.6001 21.6364C85.1645 22.1335 84.6011 22.5218 83.9098 22.8011C83.2232 23.0758 82.4302 23.2131 81.5305 23.2131ZM91.5376 16.6932V23H88.5121V12.0909H91.3956V14.0156H91.5234C91.7649 13.3812 92.1697 12.8793 92.7379 12.5099C93.3061 12.1359 93.995 11.9489 94.8047 11.9489C95.5623 11.9489 96.2228 12.1146 96.7862 12.446C97.3497 12.7775 97.7876 13.2509 98.1001 13.8665C98.4126 14.4773 98.5689 15.2064 98.5689 16.054V23H95.5433V16.5938C95.5481 15.9261 95.3776 15.4053 95.032 15.0312C94.6863 14.6525 94.2105 14.4631 93.6044 14.4631C93.1972 14.4631 92.8374 14.5507 92.5249 14.7259C92.2171 14.901 91.9756 15.1567 91.8004 15.4929C91.63 15.8243 91.5424 16.2244 91.5376 16.6932ZM110.795 23H105.639V8.45455H110.838C112.301 8.45455 113.561 8.74574 114.616 9.32812C115.672 9.90578 116.484 10.7367 117.053 11.821C117.625 12.9053 117.912 14.2027 117.912 15.7131C117.912 17.2282 117.625 18.5303 117.053 19.6193C116.484 20.7083 115.668 21.544 114.602 22.1264C113.542 22.7088 112.273 23 110.795 23ZM108.714 20.3651H110.668C111.577 20.3651 112.341 20.2041 112.962 19.8821C113.587 19.5554 114.055 19.0511 114.368 18.3693C114.685 17.6828 114.844 16.7973 114.844 15.7131C114.844 14.6383 114.685 13.7599 114.368 13.0781C114.055 12.3963 113.589 11.8944 112.969 11.5724C112.348 11.2505 111.584 11.0895 110.675 11.0895H108.714V20.3651ZM128.081 12.6378C128.024 12.0649 127.78 11.6198 127.349 11.3026C126.918 10.9853 126.333 10.8267 125.595 10.8267C125.093 10.8267 124.669 10.8977 124.324 11.0398C123.978 11.1771 123.713 11.3688 123.528 11.6151C123.348 11.8613 123.258 12.1406 123.258 12.4531C123.249 12.7135 123.303 12.9408 123.422 13.1349C123.545 13.3291 123.713 13.4972 123.926 13.6392C124.139 13.7765 124.385 13.8973 124.664 14.0014C124.944 14.1009 125.242 14.1861 125.559 14.2571L126.866 14.5696C127.501 14.7116 128.083 14.901 128.613 15.1378C129.144 15.3745 129.603 15.6657 129.991 16.0114C130.379 16.357 130.68 16.7642 130.893 17.233C131.111 17.7017 131.222 18.2391 131.227 18.8452C131.222 19.7353 130.995 20.5071 130.545 21.1605C130.1 21.8092 129.456 22.3134 128.613 22.6733C127.775 23.0284 126.764 23.206 125.581 23.206C124.406 23.206 123.384 23.026 122.512 22.6662C121.646 22.3063 120.969 21.7737 120.481 21.0682C119.998 20.358 119.745 19.4796 119.721 18.4332H122.697C122.73 18.9209 122.87 19.3281 123.116 19.6548C123.367 19.9768 123.701 20.2206 124.118 20.3864C124.539 20.5473 125.015 20.6278 125.545 20.6278C126.066 20.6278 126.518 20.5521 126.902 20.4006C127.29 20.2491 127.591 20.0384 127.804 19.7685C128.017 19.4986 128.123 19.1884 128.123 18.8381C128.123 18.5114 128.026 18.2367 127.832 18.0142C127.643 17.7917 127.363 17.6023 126.994 17.446C126.629 17.2898 126.182 17.1477 125.652 17.0199L124.068 16.6222C122.842 16.3239 121.873 15.8575 121.163 15.223C120.453 14.5885 120.1 13.7339 120.105 12.6591C120.1 11.7784 120.334 11.009 120.808 10.3509C121.286 9.69271 121.942 9.17898 122.775 8.80966C123.609 8.44034 124.556 8.25568 125.616 8.25568C126.696 8.25568 127.638 8.44034 128.443 8.80966C129.252 9.17898 129.882 9.69271 130.332 10.3509C130.782 11.009 131.014 11.7713 131.028 12.6378H128.081Z" fill="white"/>
</svg>
