<svg width="172" height="172" viewBox="0 0 172 172" fill="none" xmlns="http://www.w3.org/2000/svg">
<path d="M33.227 1.50944C34.4593 -0.503143 37.5398 -0.503146 38.7721 1.50943L59.5659 35.4717C60.7981 37.4843 59.2578 40 56.7934 40H15.2058C12.7413 40 11.201 37.4843 12.4332 35.4717L33.227 1.50944Z" fill="white"/>
<path d="M133.227 1.50944C134.459 -0.503143 137.54 -0.503146 138.772 1.50943L159.566 35.4717C160.798 37.4843 159.258 40 156.793 40H115.206C112.741 40 111.201 37.4843 112.433 35.4717L133.227 1.50944Z" fill="white"/>
<path d="M76 52C78.2089 52.0003 80 53.791 80 56V116H70.4854C67.0377 116 64.8826 119.333 66.6064 122L80 142.719V172H60C26.8629 172 0 145.137 0 112V56C1.80416e-06 53.7909 1.79086 52 4 52H76ZM168 52C170.209 52.0003 172 53.791 172 56V112C172 145.137 145.137 172 112 172H92V142.717L105.393 122C107.116 119.333 104.961 116 101.514 116H92V56C92 53.7909 93.7909 52 96 52H168Z" fill="white"/>
</svg>
