<svg width="252" height="252" viewBox="0 0 252 252" fill="none" xmlns="http://www.w3.org/2000/svg">
<path d="M0 40C0 17.9086 17.9086 0 40 0H212C234.091 0 252 17.9086 252 40V212C252 234.091 234.091 252 212 252H40C17.9086 252 0 234.091 0 212V40Z" fill="#593EAA"/>
<path d="M73.2271 41.5094C74.4593 39.4969 77.5398 39.4969 78.7721 41.5094L99.5659 75.4717C100.798 77.4843 99.2578 80 96.7934 80H55.2058C52.7413 80 51.201 77.4843 52.4332 75.4717L73.2271 41.5094Z" fill="white"/>
<path d="M173.227 41.5094C174.459 39.4969 177.54 39.4969 178.772 41.5094L199.566 75.4717C200.798 77.4843 199.258 80 196.793 80H155.206C152.741 80 151.201 77.4843 152.433 75.4717L173.227 41.5094Z" fill="white"/>
<path d="M116 92C118.209 92.0003 120 93.791 120 96V156H110.485C107.038 156 104.883 159.333 106.606 162L120 182.719V212H100C66.8629 212 40 185.137 40 152V96C40 93.7909 41.7909 92 44 92H116ZM208 92C210.209 92.0003 212 93.791 212 96V152C212 185.137 185.137 212 152 212H132V182.717L145.393 162C147.116 159.333 144.961 156 141.514 156H132V96C132 93.7909 133.791 92 136 92H208Z" fill="white"/>
</svg>
